<?xml version="1.0" encoding="UTF-8" standalone="no"?>
<!-- Created with Inkscape (http://www.inkscape.org/) -->

<svg xmlns:dc="http://purl.org/dc/elements/1.1/" xmlns:cc="http://creativecommons.org/ns#" xmlns:rdf="http://www.w3.org/1999/02/22-rdf-syntax-ns#" xmlns:svg="http://www.w3.org/2000/svg" xmlns="http://www.w3.org/2000/svg" xmlns:sodipodi="http://sodipodi.sourceforge.net/DTD/sodipodi-0.dtd" xmlns:inkscape="http://www.inkscape.org/namespaces/inkscape" id="svg2985" version="1.1" inkscape:version="0.48.5 r10040" width="940.28644" height="408.30731" sodipodi:docname="5USA_logo_2016.svg">
  <metadata id="metadata2991">
    <rdf:RDF>
      <cc:Work rdf:about="">
        <dc:format>image/svg+xml</dc:format>
        <dc:type rdf:resource="http://purl.org/dc/dcmitype/StillImage" />
        <dc:title />
      </cc:Work>
    </rdf:RDF>
  </metadata>
  <defs id="defs2989" />
  <sodipodi:namedview pagecolor="#ffffff" bordercolor="#666666" borderopacity="1" objecttolerance="10" gridtolerance="10" guidetolerance="10" inkscape:pageopacity="0" inkscape:pageshadow="2" inkscape:window-width="1366" inkscape:window-height="706" id="namedview2987" showgrid="false" fit-margin-top="0" fit-margin-left="0" fit-margin-right="0" fit-margin-bottom="0" inkscape:zoom="0.76647367" inkscape:cx="1078.5828" inkscape:cy="31.143312" inkscape:window-x="-8" inkscape:window-y="-8" inkscape:window-maximized="1" inkscape:current-layer="svg2985" />
  <g id="g3055" transform="translate(-1.1228138,-0.86248769)">
    <path sodipodi:nodetypes="ccccccccccccccccc" inkscape:connector-curvature="0" id="path2995" d="m 304.23391,12.726453 c 0.10709,-4.790088 1.88964,-8.2093416 7.42034,-8.5619303 l 44.8789,0 c 3.59261,1.1640127 7.56304,2.8778721 6.84954,8.3480003 l 0,149.191507 c 2.18326,17.95197 14.08361,38.14698 43.02358,40.52647 23.59164,-1.30298 40.35072,-13.5011 45.66363,-43.95124 l 0,-146.123603 c 0.63473,-3.2395791 1.01651,-6.5845505 7.42034,-7.420339 14.07962,0 28.15923,0 42.23885,0 7.01398,0.8461591 7.18732,4.8495428 7.99114,8.56193 l 0,156.397922 c -7.12,41.90549 -24.61,53.99458 -34.24772,64.49987 -16.32804,15.40568 -41.43469,26.04265 -66.96859,26.04265 -35.43852,0 -57.5669,-14.99832 -74.60285,-31.02267 -16.9443,-15.1386 -26.53458,-38.35966 -29.09637,-62.94462 z" style="fill:#fb2c32;fill-opacity:1;stroke:none" />
    <path sodipodi:nodetypes="ccccccccccccccccccssssssssc" inkscape:connector-curvature="0" id="path3538" d="m 528.89958,66.264539 c 6.0538,-24.46175 7.14362,-31.91463 29.35272,-49.846811 C 575.14252,4.1289198 594.69541,0.92994107 613.64039,0.86248769 643.28544,2.767976 667.98096,10.996365 692.53702,30.711794 c 0.91271,2.911877 1.3547,5.7453 -0.58442,8.181872 l -19.87026,30.38981 c -5.78129,7.18876 -8.96948,2.858468 -11.68839,2.337678 C 644.55322,62.66846 628.77441,52.725223 612.47156,51.166474 589.97351,50.611975 587.301,64.240429 586.7571,68.699057 c 0.50182,13.599131 10.71117,19.496496 20.05043,26.118706 l 40.72919,17.936827 c 20.57606,10.40085 35.63642,23.4574 43.24704,40.10086 10.66621,21.6631 10.89081,43.50141 0.44817,64.74331 -21.22801,33.56246 -45.95561,39.43325 -65.31873,41.03661 -45.44697,3.30225 -68.78704,-7.63507 -89.68417,-22.96803 -6.01511,-4.02122 -8.41321,-7.18309 -6.16061,-12.09714 l 19.87026,-33.89632 c 5.8833,-5.26014 7.86548,-0.76747 11.10397,0.58442 0,0 9.02533,6.28025 13.57789,8.76629 6.12893,3.34685 11.29737,5.58804 18.02467,7.4612 6.63504,1.84747 14.3836,3.88611 21.17535,2.74193 7.13101,-1.20133 13.58346,-3.11181 18.20484,-8.67395 2.5995,-3.12868 4.10468,-8.72326 3.68668,-12.7694 -0.79723,-7.71702 -5.00007,-14.14753 -10.3833,-19.73401 -7.69658,-7.98718 -21.46117,-13.16359 -31.33907,-18.20933 -11.33875,-5.79197 -18.71308,-9.77166 -29.44055,-15.10258 C 537.46094,121.2772 526.21201,82.005229 528.89958,66.264539 z" style="fill:#fb2c32;fill-opacity:1;stroke:none" />
    <g id="g3069">
      <path style="fill:#fb2c32;fill-opacity:1;stroke:none" d="m 758.23245,248.2853 c -2.00214,6.97653 -4.39845,6.99161 -7.65639,7.46603 l -43.35094,0 c -6.81634,-1.47927 -6.89813,-5.38856 -6.58122,-9.07345 L 789.89435,10.768142 c 1.67001,-4.1998766 4.11956,-5.9052421 7.05712,-6.0489674 l 54.44071,0 z" id="path3540" inkscape:connector-curvature="0" sodipodi:nodetypes="cccccccc" />
      <path style="fill:#fb2c32;fill-opacity:1;stroke:none" d="m 803.34582,201.35623 34.19066,0 L 880.88054,86.669461 863.6506,42.786965 z" id="path3542" inkscape:connector-curvature="0" />
      <path style="fill:#fb2c32;fill-opacity:1;stroke:none" d="m 882.22663,247.12325 -16.96072,-44.69015 29.07552,-78.07315 17.49915,44.42093 z" id="path3544" inkscape:connector-curvature="0" />
      <path style="fill:#fb2c32;fill-opacity:1;stroke:none" d="m 906.72544,255.92901 19.11446,-50.2653 15.0762,40.65189 c 1.46054,6.31814 -0.39861,9.17227 -4.5767,9.60662 z" id="path3546" inkscape:connector-curvature="0" sodipodi:nodetypes="ccccc" />
    </g>
    <g id="g3048">
      <path style="fill:#fb2c32;fill-opacity:1;stroke:none" d="m 132.49203,408.86061 0,-85.43841 c -35.184217,-7.36395 -45.759543,-35.64069 -46.40964,-56.76809 -4.253388,-5.82444 -5.321409,-6.36262 -7.960627,-6.36262 l -69.513524,0 c -5.0168057,0 -6.3252598,4.20144 -7.4854252,7.48543 1.2997257,72.93507 49.5815802,141.08369 131.3692162,141.08369 z" id="path3575" inkscape:connector-curvature="0" sodipodi:nodetypes="cccsscc" />
      <path style="fill:#fb2c32;fill-opacity:1;stroke:none" d="m 145.6978,409.16981 0,-85.67889 c 27.08973,-5.34 46.90556,-22.00128 46.90556,-53.7925 0,-20.45548 -15.49242,-35.01941 -25.73579,-45.24519 37.29474,12.01891 77.42577,41.06501 80.11304,98.37714 -1.60877,58.87971 -50.85831,82.54774 -101.28281,86.33944 z" id="path3577" inkscape:connector-curvature="0" sodipodi:nodetypes="ccsccc" />
      <path style="fill:#fb2c32;fill-opacity:1;stroke:none" d="m 9.2477144,133.05476 133.6171256,0 c 0,0 102.6315,-2.21401 131.92439,107.10853 16.55522,41.72025 -14.29539,97.77428 -14.29539,97.77428 C 263.14797,308.7052 247.57317,223.21378 150.094,209.06776 l -89.323306,0 c -7.799739,-0.1087 -15.565395,-0.35373 -20.539445,-11.76519 z" id="path3579" inkscape:connector-curvature="0" sodipodi:nodetypes="cccccccc" />
      <path style="fill:#fb2c32;fill-opacity:1;stroke:none" d="M 130.19188,4.8868188 92.394234,119.89503 l -83.3486446,0 L 44.90489,11.347954 c 2.476769,-4.2277141 4.953537,-5.9867334 7.430306,-6.784192 z" id="path3581" inkscape:connector-curvature="0" sodipodi:nodetypes="cccccc" />
      <path style="fill:#fb2c32;fill-opacity:1;stroke:none" d="m 117.91572,81.774328 125.66908,0 c 6.02542,0 10.3347,-3.258112 10.3347,-8.223941 l 0,-60.264092 c 0,-6.3881458 -4.45188,-8.426286 -9.04247,-8.3994762 l -100.79371,0 z" id="path3583" inkscape:connector-curvature="0" sodipodi:nodetypes="ccssccc" />
    </g>
  </g>
</svg>
